<?xml version="1.0" standalone="no"?>
<!DOCTYPE svg PUBLIC "-//W3C//DTD SVG 20010904//EN"
 "http://www.w3.org/TR/2001/REC-SVG-20010904/DTD/svg10.dtd">
<svg version="1.0" xmlns="http://www.w3.org/2000/svg"
 width="1440.000000pt" height="960.000000pt" viewBox="0 0 1440.000000 960.000000"
 preserveAspectRatio="xMidYMid meet">

<g transform="translate(0.000000,960.000000) scale(0.100000,-0.100000)"
fill="#000000" stroke="none">
<path d="M12125 6179 c-22 -5 -135 -13 -250 -17 -186 -6 -214 -9 -240 -27 -17
-11 -34 -18 -38 -17 -5 1 -6 -2 -3 -7 4 -5 2 -11 -2 -13 -5 -1 -22 -50 -39
-108 -17 -58 -34 -114 -38 -125 -4 -12 -3 -15 2 -8 4 6 8 -40 8 -105 0 -107 2
-120 24 -152 13 -19 55 -55 94 -80 88 -57 174 -149 182 -194 6 -32 8 -33 38
-26 43 9 88 34 112 60 26 29 25 90 -3 152 -27 58 -28 92 -2 118 34 34 79 21
100 -30 7 -16 16 -30 20 -30 5 0 16 21 26 48 25 68 57 106 138 167 39 29 83
66 97 81 33 37 69 89 69 101 0 4 -4 2 -8 -4 -4 -7 -6 17 -4 52 3 48 0 71 -12
90 -21 32 -20 41 2 24 9 -7 6 -1 -7 14 -25 28 -38 36 -25 15 5 -8 2 -9 -10 -5
-10 4 -20 7 -22 7 -3 0 -3 4 0 8 6 10 5 10 -94 16 -41 3 -93 0 -115 -5z m-68
-96 c-20 -2 -52 -2 -70 0 -17 2 0 4 38 4 39 0 53 -2 32 -4z m-167 -17 c-79
-14 -108 -29 -114 -59 -3 -12 -7 -31 -9 -42 -3 -14 -5 -12 -6 8 -3 66 57 105
159 105 23 0 13 -4 -30 -12z m-139 -143 c-5 -10 -24 -31 -42 -48 -30 -28 -29
-26 6 18 41 50 52 58 36 30z"/>
<path d="M11614 6148 l-19 -23 23 19 c21 18 27 26 19 26 -2 0 -12 -10 -23 -22z"/>
<path d="M9504 6039 c-73 -23 -156 -92 -175 -144 -7 -19 -16 -32 -20 -29 -4 2
-5 -6 -1 -18 3 -12 1 -19 -4 -15 -6 3 -11 -8 -12 -25 -7 -86 -99 -158 -203
-158 -44 0 -136 -39 -168 -70 -17 -18 -34 -50 -42 -81 -21 -80 -59 -116 -153
-139 -43 -11 -83 -17 -90 -13 -6 3 -8 2 -3 -2 4 -5 -11 -19 -32 -32 -73 -43
-99 -111 -77 -206 23 -107 20 -142 -19 -206 -19 -31 -35 -69 -35 -85 0 -48 38
-102 94 -132 46 -26 63 -29 164 -32 169 -6 293 11 372 51 55 27 72 42 112 102
100 146 128 167 276 200 l73 17 58 86 c113 169 126 208 95 280 -40 92 -36 134
11 152 34 13 59 0 75 -40 17 -41 31 -34 52 25 20 57 49 90 103 117 22 11 55
34 73 51 25 24 35 29 41 18 14 -22 20 39 10 94 -5 27 -20 65 -33 85 -25 37
-112 134 -100 112 5 -11 2 -12 -15 -2 -12 6 -19 15 -16 20 3 5 0 12 -6 16 -8
5 -9 3 -4 -6 6 -10 4 -12 -11 -6 -106 41 -287 48 -390 15z m213 -105 c-3 -3
-12 -4 -19 -1 -8 3 -5 6 6 6 11 1 17 -2 13 -5z m-102 -31 c-54 -29 -94 -64
-125 -111 -16 -25 -30 -41 -30 -34 0 35 137 163 174 162 6 -1 -2 -8 -19 -17z
m-161 -197 c-3 -15 -8 -25 -11 -23 -2 3 -1 17 3 31 3 15 8 25 11 23 2 -3 1
-17 -3 -31z m-31 -74 c-29 -39 -74 -51 -193 -50 l-105 1 120 7 c126 6 154 15
176 57 7 13 15 21 18 18 2 -3 -4 -18 -16 -33z m-318 -62 c-27 -12 -43 -12 -25
0 8 5 22 9 30 9 10 0 8 -3 -5 -9z m-72 -37 c-17 -16 -36 -37 -42 -48 -6 -11
-11 -14 -11 -6 0 14 62 81 76 81 5 0 -6 -12 -23 -27z m-56 -95 c-3 -8 -6 -5
-6 6 -1 11 2 17 5 13 3 -3 4 -12 1 -19z"/>
<path d="M9369 5993 l-24 -28 28 24 c15 14 27 26 27 28 0 8 -8 1 -31 -24z"/>
<path d="M11490 5631 c0 -6 4 -13 10 -16 6 -3 7 1 4 9 -7 18 -14 21 -14 7z"/>
<path d="M11537 5579 c7 -7 15 -10 18 -7 3 3 -2 9 -12 12 -14 6 -15 5 -6 -5z"/>
<path d="M11831 5116 c-16 -30 -33 -65 -36 -78 -4 -14 -12 -25 -19 -25 -15 0
-156 -96 -181 -123 -17 -19 -16 -22 32 -77 83 -96 113 -144 113 -177 0 -17 11
-85 25 -151 45 -214 34 -323 -69 -675 -8 -29 -10 -54 -4 -69 7 -19 1 -31 -38
-74 -85 -94 -141 -206 -235 -471 -29 -82 -36 -112 -28 -122 19 -23 140 -109
216 -153 40 -24 116 -60 170 -82 l98 -39 33 36 c19 20 35 34 36 32 18 -24 36
-54 36 -60 0 -5 -11 -8 -25 -8 -14 0 -28 -7 -31 -15 -8 -20 91 -197 164 -295
75 -101 180 -206 193 -193 6 6 10 19 11 29 0 10 -65 117 -146 237 -80 120
-146 222 -146 228 0 5 12 9 26 9 64 0 358 87 448 132 38 19 61 26 65 19 4 -6
41 66 83 159 l77 169 -15 62 c-21 89 -70 364 -89 499 -9 63 -19 117 -21 119
-2 2 -19 -6 -37 -19 -73 -50 -103 -128 -112 -289 -3 -53 -9 -116 -12 -141 l-5
-45 -19 43 c-18 41 -18 48 -4 110 8 37 24 130 35 207 11 77 23 152 26 167 5
26 4 27 -24 22 -64 -13 -120 34 -295 250 l-104 129 46 41 c83 74 254 186 265
175 2 -2 19 -47 36 -99 33 -96 66 -170 76 -170 3 0 19 7 36 16 l30 16 -5 101
c-2 56 -12 125 -20 152 -24 74 -104 207 -177 295 l-65 77 -70 6 c-107 8 -177
39 -246 108 -33 33 -61 59 -63 59 -2 0 -18 -24 -35 -54z"/>
<path d="M13220 4386 c-112 -30 -194 -116 -282 -296 -66 -135 -103 -184 -153
-200 -39 -13 -65 -4 -119 39 -56 44 -67 41 -60 -16 12 -93 73 -449 90 -523
l17 -74 54 109 c137 278 264 494 469 797 62 91 110 169 107 172 -10 10 -75 6
-123 -8z"/>
<path d="M13287 4258 c-190 -277 -353 -548 -476 -795 -44 -87 -78 -159 -77
-161 12 -11 636 293 636 310 0 24 -42 55 -103 78 -119 44 -105 107 62 283 55
57 109 123 120 145 25 49 28 133 6 185 -13 33 -57 77 -76 77 -4 0 -46 -55 -92
-122z"/>
<path d="M10906 3745 c-20 -15 -34 -85 -16 -85 5 0 9 -5 8 -11 -2 -6 3 -14 11
-17 8 -3 11 0 7 7 -4 6 -2 12 3 12 6 1 17 2 24 3 6 0 13 14 15 30 3 21 0 26
-10 20 -10 -6 -11 -5 -1 8 11 12 10 18 -5 31 -15 13 -20 14 -36 2z m31 -18
c-2 -6 -13 -11 -25 -12 -11 -1 -19 2 -16 7 4 5 13 7 21 4 11 -5 13 -2 9 9 -3
10 -2 13 5 10 5 -4 8 -12 6 -18z"/>
<path d="M13700 3750 c-13 -9 -13 -11 0 -20 11 -7 11 -10 2 -10 -7 0 -11 -4
-8 -8 3 -5 -1 -9 -9 -9 -11 0 -12 4 -4 14 8 9 8 13 0 13 -20 0 -25 -50 -7 -68
15 -15 19 -15 43 -2 14 8 25 19 24 24 -2 5 3 12 10 17 19 11 21 49 4 55 -8 4
-23 0 -32 -7 -12 -10 -15 -10 -9 -1 9 14 6 15 -14 2z m57 -25 c0 -8 -4 -12 -9
-9 -5 3 -6 10 -3 15 9 13 12 11 12 -6z m-40 -53 c-9 -8 -23 -12 -31 -9 -18 7
-22 27 -6 27 6 0 10 -4 10 -10 0 -5 5 -10 10 -10 6 0 9 3 9 8 -3 17 2 23 12
16 7 -4 6 -11 -4 -22z"/>
<path d="M7976 3677 c-27 -20 -29 -71 -5 -122 11 -24 27 -49 34 -55 16 -13 47
-2 38 14 -4 6 1 5 10 -3 18 -14 22 -22 10 -20 -19 3 -34 -2 -29 -9 2 -4 18 -9
35 -10 51 -4 76 57 51 123 -5 14 -14 23 -20 20 -6 -4 -7 1 -3 11 4 12 3 15 -5
10 -7 -4 -10 -2 -7 6 6 15 -43 48 -72 48 -11 0 -27 -6 -37 -13z m-3 -34 c-5
-12 -3 -14 7 -8 9 6 11 4 5 -4 -5 -9 -11 -9 -17 -3 -6 6 -7 15 -4 21 11 17 16
13 9 -6z m42 -22 c-3 -6 -11 -11 -16 -11 -5 0 -4 6 3 14 14 16 24 13 13 -3z
m52 13 c-3 -3 -12 -4 -19 -1 -8 3 -5 6 6 6 11 1 17 -2 13 -5z m-17 -18 c0 -2
-7 -7 -16 -10 -8 -3 -12 -2 -9 4 6 10 25 14 25 6z m61 -69 c-10 -9 -11 -8 -5
6 3 10 9 15 12 12 3 -3 0 -11 -7 -18z m2 -37 c-3 -12 -8 -19 -11 -16 -5 6 5
36 12 36 2 0 2 -9 -1 -20z"/>
<path d="M9402 3633 c-67 -95 -141 -287 -212 -548 -28 -104 -69 -248 -92 -319
-39 -125 -39 -130 -22 -144 22 -17 249 -127 280 -136 17 -5 44 26 179 206 87
117 161 216 165 221 5 5 86 -112 124 -180 3 -6 -16 -46 -43 -88 -57 -86 -66
-120 -58 -208 7 -76 31 -111 78 -114 19 -1 27 0 19 4 -21 8 -50 34 -50 45 0 5
5 6 11 2 6 -3 3 5 -6 20 -36 54 -1 180 67 244 l24 22 24 -42 c48 -88 104 -168
115 -168 13 0 199 41 278 60 32 8 47 18 47 29 0 19 -38 220 -86 453 -38 183
-66 288 -114 421 -26 71 -35 87 -49 82 -33 -14 -180 -17 -246 -6 -84 15 -244
65 -305 96 -25 13 -58 35 -73 49 -15 14 -30 26 -32 26 -2 0 -12 -12 -23 -27z"/>
<path d="M10930 3640 c0 -5 5 -10 11 -10 5 0 7 5 4 10 -3 6 -8 10 -11 10 -2 0
-4 -4 -4 -10z"/>
<path d="M13205 3496 c-88 -45 -234 -115 -324 -156 l-164 -74 -25 -55 c-14
-31 -51 -114 -83 -184 l-58 -128 13 -62 c10 -49 16 -61 29 -59 74 13 597 234
597 253 0 20 -46 59 -93 78 -65 27 -85 57 -63 99 21 41 52 66 151 122 95 54
157 107 181 152 15 28 20 99 7 96 -5 -1 -80 -38 -168 -82z"/>
<path d="M7026 3236 c-81 -30 -79 -38 35 -102 215 -119 638 -388 655 -415 17
-28 -16 -10 -158 84 -85 57 -204 133 -264 169 -127 76 -354 208 -358 208 -2 0
-11 -18 -21 -40 -34 -76 5 -191 82 -241 49 -32 79 -45 182 -80 138 -47 201
-93 201 -146 0 -13 -17 -42 -39 -66 -62 -68 -81 -125 -43 -129 9 0 28 -2 42
-3 14 -2 90 -3 170 -4 100 -1 141 -4 134 -11 -7 -7 -74 -10 -186 -8 -166 3
-175 2 -170 -16 14 -53 122 -116 201 -116 14 0 42 -3 62 -6 36 -6 37 -7 42
-61 10 -92 53 -145 104 -127 22 7 32 21 48 67 20 59 29 68 39 41 7 -20 -8 -49
-50 -97 -44 -48 -47 -92 -6 -100 79 -15 725 37 720 58 -2 9 -394 339 -426 359
-7 4 -29 2 -48 -4 -41 -14 -54 -4 -54 38 0 12 -5 22 -10 22 -6 0 -7 6 -1 18 5
9 17 36 27 60 10 24 31 54 48 67 28 22 32 22 58 9 46 -24 180 -37 295 -29
l104 7 -5 27 c-3 14 -11 57 -17 94 l-11 69 -52 -51 c-87 -86 -115 -73 -211 99
-100 180 -152 237 -240 261 -61 17 -67 9 -44 -58 48 -139 107 -354 96 -350 -7
2 -20 30 -30 63 -82 264 -104 328 -114 331 -7 3 -25 -22 -42 -54 -35 -69 -63
-88 -124 -81 -46 5 -73 22 -202 124 -38 30 -103 71 -143 91 -63 32 -85 37
-155 40 -55 2 -95 -2 -121 -11z"/>
<path d="M13050 2935 c-74 -34 -209 -90 -300 -125 -91 -34 -166 -63 -168 -64
-5 -5 84 -410 94 -424 2 -4 121 23 192 44 50 14 52 16 52 51 0 23 -13 59 -35
99 -19 34 -35 73 -35 86 0 46 54 100 206 211 88 63 146 140 132 175 -1 4 -64
-19 -138 -53z"/>
<path d="M8430 2833 c0 -5 7 -44 15 -88 8 -44 14 -86 15 -92 0 -9 24 -13 85
-13 47 0 85 2 85 5 0 3 -9 24 -20 46 -26 50 -85 116 -121 135 -30 15 -59 19
-59 7z"/>
<path d="M11879 2738 c-31 -74 4 -244 84 -407 38 -79 45 -87 77 -93 19 -4 67
-14 105 -22 39 -8 77 -17 85 -21 11 -4 19 5 29 31 l13 36 -55 49 c-93 82 -202
229 -274 368 -25 47 -46 87 -48 89 -1 1 -9 -12 -16 -30z"/>
<path d="M8107 2451 l-37 -6 202 -168 203 -168 3 58 c2 32 1 95 -3 139 -6 78
-8 82 -33 88 -15 3 -79 17 -142 31 -147 33 -148 33 -193 26z"/>
<path d="M6808 2383 c-22 -6 -30 -30 -17 -55 8 -15 17 -18 36 -13 15 3 22 2
19 -4 -4 -6 5 -6 21 -2 31 8 42 41 21 59 -17 13 -58 21 -80 15z m37 -35 c3 -3
-8 -5 -25 -5 -16 0 -30 4 -30 8 0 8 47 5 55 -3z"/>
<path d="M8498 2233 l5 -148 51 -44 c28 -25 104 -97 168 -160 l117 -114 21 49
c43 100 90 329 90 440 l0 30 -207 43 c-115 23 -217 45 -229 47 -21 5 -21 4
-16 -143z"/>
<path d="M12781 2322 l-103 -25 7 -71 c4 -39 8 -73 10 -74 2 -2 35 16 73 41
65 42 104 82 131 135 14 27 17 27 -118 -6z"/>
<path d="M12307 2300 c-3 -13 0 -20 9 -20 15 0 19 26 5 34 -5 3 -11 -3 -14
-14z"/>
<path d="M8962 2158 c-13 -133 -38 -243 -79 -345 -43 -107 -16 -108 139 -5
l86 57 -4 102 c-3 114 -30 277 -47 292 -7 5 -28 12 -47 16 l-36 6 -12 -123z"/>
<path d="M12282 2223 c-9 -29 -9 -39 1 -45 19 -12 24 -10 31 15 18 67 -12 96
-32 30z"/>
<path d="M8370 2054 c-134 -18 -351 -33 -517 -36 -79 -2 -143 -4 -143 -6 0 -2
4 -12 10 -22 20 -37 80 -62 222 -91 79 -16 157 -34 175 -40 39 -13 83 -62 83
-94 0 -15 7 -24 23 -28 12 -3 56 -15 97 -26 41 -12 118 -28 170 -36 l94 -15
91 34 c49 19 103 39 119 46 l29 11 -54 55 c-96 99 -280 264 -292 263 -7 -1
-55 -8 -107 -15z"/>
<path d="M8755 1700 c-38 -16 -60 -29 -49 -29 35 -1 155 39 149 49 -9 15 -23
12 -100 -20z"/>
<path d="M10580 1176 c0 -8 5 -18 10 -21 18 -11 11 -24 -27 -50 -49 -33 -141
-35 -191 -5 -18 11 -34 20 -36 20 -11 0 -25 -73 -30 -151 -4 -79 -3 -89 16
-105 21 -20 92 -23 258 -13 36 2 99 0 140 -5 65 -7 82 -5 133 14 31 12 73 37
93 55 29 28 35 40 32 67 -4 44 -34 58 -128 58 -65 0 -82 4 -127 30 -35 20 -59
43 -75 72 -24 44 -68 66 -68 34z"/>
<path d="M13250 1015 c19 -23 -12 -61 -79 -96 -64 -34 -121 -37 -217 -12 -54
14 -71 15 -109 5 -25 -7 -81 -12 -124 -12 -63 0 -83 4 -104 20 -33 26 -37 25
-37 -8 0 -53 29 -67 139 -65 53 1 137 1 186 1 226 -2 218 -3 270 24 57 29 79
51 94 91 12 30 0 67 -21 67 -7 0 -6 -6 2 -15z"/>
</g>
</svg>
